<svg width="457" height="352" viewBox="0 0 457 352" fill="none" xmlns="http://www.w3.org/2000/svg">
<path fill-rule="evenodd" clip-rule="evenodd" d="M181.749 77L178.904 81.877H176.175L175.305 83.311H178.062L171.993 93.694C170.716 95.902 171.617 97.94 174.055 97.94C175.278 97.94 176.593 97.303 177.908 96.319L177.13 97.653H180.176L184.764 89.766C189.408 83.999 191.47 84.746 190.163 86.956L186.243 93.696C184.965 95.906 185.866 97.944 188.304 97.944C190.1 97.944 192.092 96.574 193.997 94.739C194.143 96.596 195.664 97.944 198.087 97.944C201.51 97.944 204.907 95.304 207.403 92.436C207.206 92.033 206.684 91.575 206.277 91.403L206.074 91.629C203.896 94.126 201.11 96.104 198.992 96.104C197.132 96.104 196.028 94.958 197.422 92.549L197.712 92.029C199.658 92.834 203.316 92.46 205.58 88.589L206.017 87.842C207.642 85.089 206.075 83.024 203.607 83.024C201.168 83.024 199.224 84.287 197.947 86.465L195.017 91.43L194.841 91.63C192.664 94.124 190.546 96.102 189.21 96.102C188.544 96.102 188.164 95.642 188.86 94.467L193.215 86.924C194.521 84.659 193.275 83.024 191.591 83.024C190.284 83.024 188.889 83.741 187.381 85.289L192.199 77H189.18L180.757 91.438L180.587 91.628C178.411 94.124 176.29 96.102 174.954 96.102C174.287 96.102 173.91 95.642 174.608 94.467L181.08 83.309H183.547L184.419 81.876H181.923L184.768 77.001L181.749 77ZM149.44 81.879L152.285 77.004H155.304L152.458 81.877H154.957L154.085 83.313H151.62L145.144 94.471C144.447 95.646 144.825 96.106 145.492 96.106C146.827 96.106 148.949 94.127 151.125 91.631L151.281 91.455L152.518 89.365L153.998 86.812C155.74 83.828 157.538 82.912 159.86 82.912C162.706 82.912 164.389 85.865 162.561 88.992L159.716 93.838C161.227 93.809 162.91 93.094 164.274 91.631L164.479 91.403C164.885 91.575 165.407 92.032 165.607 92.436C164.067 94.242 161.223 95.332 159.423 95.332H158.757C155.488 99.416 150.141 98.673 150.147 94.871C148.281 96.64 146.344 97.944 144.59 97.944C142.152 97.944 141.251 95.906 142.529 93.697L148.597 83.314H145.84L146.71 81.879H149.44ZM160.238 87.877C161.266 86.135 160.8 84.93 159.816 84.84C159.051 84.77 157.973 85.376 157.046 86.932L155.595 89.369L153.301 93.297C151.501 96.394 154.958 96.853 156.38 94.443L156.41 94.387C156.235 94.099 156.119 93.754 156.119 93.383C156.119 92.408 156.902 91.604 157.889 91.604H158.034L160.238 87.877ZM203.55 87.846C204.562 86.102 204.03 85.185 203.061 85.242V85.243C202.309 85.287 201.292 85.921 200.529 87.213L198.583 90.57C199.716 90.972 201.663 91.03 203.113 88.592L203.55 87.846ZM247.379 79.779C245.665 81.299 245.521 82.993 246.596 84.369L246.858 84.713L246.796 84.7999C245.467 86.6558 243.692 89.1355 241.748 91.397L241.75 91.4L241.547 91.629C240.182 93.09 238.501 93.809 236.989 93.838L239.832 88.99C241.662 85.864 239.979 82.91 237.132 82.91C234.812 82.91 233.012 83.828 231.272 86.81L229.788 89.363L228.55 91.455L228.396 91.631C225.899 94.471 223.753 96.302 221.371 97.307L228.134 85.893H226.364C226.364 84.659 225.088 83.023 223.2 83.023C221.576 83.023 219.31 84.288 218.032 86.467L213.794 93.694C212.516 95.902 213.416 97.94 215.854 97.94C216.697 97.94 217.714 97.566 218.731 96.936L217.888 98.34C213.824 99.573 211.268 101.208 211.268 103.446C211.268 106.315 215.71 106.917 217.888 103.246L220.18 99.316C222.596 98.573 224.963 97.169 227.42 94.852C227.399 98.669 232.757 99.419 236.03 95.328H236.698C238.498 95.328 241.343 94.239 242.882 92.432C244.331 90.768 245.462 89.277 247.872 86.037L248.277 86.526C248.654 87.013 248.802 87.616 248.452 88.217L245.259 93.696C243.979 95.906 244.88 97.942 247.32 97.942C248.85 97.942 250.524 96.947 252.162 95.52C252.112 96.906 253.049 97.942 254.781 97.942C255.621 97.942 256.638 97.569 257.655 96.938L256.813 98.34C252.748 99.573 250.197 101.208 250.197 103.446C250.197 106.315 254.637 106.916 256.813 103.246L259.105 99.316C261.565 98.558 263.975 97.11 266.482 94.717C266.618 96.585 268.14 97.942 270.572 97.942C273.03 97.942 275.471 96.579 277.576 94.752C277.459 98.657 282.886 99.455 286.188 95.33H286.856C287.801 95.33 289.031 95.022 290.213 94.477C289.4 96.55 290.147 97.942 291.874 97.942C293.53 97.942 295.387 96.45 296.838 95.074C296.548 96.679 297.505 97.942 299.422 97.942C301.918 97.942 304.792 95.305 307.29 92.436L307.288 92.434C308.643 90.8896 309.871 89.2581 310.858 87.9483L310.858 87.9481C311.118 87.6025 311.362 87.2793 311.586 86.986C311.186 88.0262 310.992 89.345 310.802 90.6378C310.427 93.1927 310.066 95.646 308.16 95.646C307.144 95.646 306.74 94.556 306.74 94.556L304.85 95.531C304.85 95.531 305.401 97.943 308.16 97.943C308.428 97.943 308.672 97.9174 308.934 97.8899L309 97.883C309.015 97.883 309.03 97.8763 309.045 97.8695C309.061 97.8628 309.076 97.856 309.091 97.856C312.167 97.456 315.215 95.046 317.479 92.436C317.306 91.977 316.783 91.518 316.349 91.402L316.146 91.631C315.081 92.8633 313.861 93.9523 312.516 94.871C312.891 93.7572 313.088 92.4097 313.301 90.953C313.632 88.6952 314 86.1753 315.13 83.857L312.866 82.652C312.635 82.9649 312.354 83.3532 312.031 83.7982C310.608 85.7611 308.385 88.8281 306.16 91.4V91.402L305.957 91.631C303.781 94.127 301.662 96.103 300.326 96.103C299.659 96.103 299.281 95.644 299.979 94.469L306.423 83.311H303.403L298.033 92.576C295.74 94.64 293.971 95.788 293.389 95.529C292.689 95.2377 293.288 94.2533 293.68 93.6088C293.71 93.5586 293.74 93.5105 293.767 93.465L299.66 83.313H296.64L291.906 91.405L291.707 91.631C290.343 93.094 288.66 93.811 287.149 93.841L289.994 88.992C291.822 85.865 290.144 82.912 287.295 82.912C284.972 82.912 283.172 83.83 281.431 86.815L279.949 89.365L278.712 91.455L278.557 91.633C276.381 94.129 273.593 96.106 271.474 96.106C269.616 96.106 268.514 94.96 269.907 92.551L270.197 92.033C272.141 92.837 275.801 92.463 278.064 88.59L278.502 87.844C280.125 85.09 278.56 83.025 276.092 83.025C273.652 83.025 271.705 84.29 270.429 86.469L267.503 91.434L267.328 91.631C264.829 94.471 262.683 96.304 260.3 97.309L267.064 85.893H265.292C265.292 84.659 264.015 83.025 262.128 83.025C260.503 83.025 258.239 84.288 256.961 86.467L254.065 91.404L254.057 91.4L253.854 91.63C251.678 94.125 249.556 96.104 248.22 96.104C247.553 96.104 247.178 95.644 247.874 94.469L250.892 89.249C251.937 87.442 251.443 86.379 250.455 85.203L248.772 83.193C248.337 82.648 248.337 82.047 248.947 81.473L247.379 79.779ZM237.509 87.877C238.536 86.135 238.069 84.929 237.085 84.839V84.84C236.321 84.77 235.245 85.376 234.317 86.932L232.864 89.369L230.572 93.297C228.772 96.394 232.228 96.853 233.65 94.443L233.678 94.387C233.504 94.099 233.388 93.754 233.388 93.383C233.388 92.408 234.172 91.604 235.158 91.604H235.305L237.509 87.877ZM287.243 84.839C288.227 84.929 288.696 86.135 287.669 87.877L285.463 91.604H285.316C284.33 91.604 283.548 92.408 283.548 93.383C283.548 93.754 283.664 94.099 283.837 94.387L283.807 94.443C282.386 96.853 278.932 96.394 280.732 93.297L283.024 89.369L284.475 86.932C285.402 85.376 286.478 84.77 287.243 84.84V84.839ZM276.028 87.846C277.04 86.103 276.511 85.187 275.543 85.244V85.245C274.791 85.289 273.773 85.923 273.011 87.215L271.063 90.57C272.196 90.972 274.142 91.03 275.593 88.592L276.028 87.846ZM223.14 85.445C224.163 85.439 224.818 86.329 223.985 87.845L221.693 91.805C219.863 94.702 218.033 96.105 216.755 96.105C216.088 96.105 215.71 95.646 216.406 94.471L220.618 87.215C221.328 85.998 222.345 85.45 223.14 85.445ZM262.908 87.845C263.741 86.329 263.086 85.439 262.063 85.445C261.268 85.45 260.251 85.998 259.541 87.215L255.331 94.471C254.637 95.646 255.013 96.105 255.68 96.105C256.956 96.105 258.788 94.702 260.616 91.805L262.908 87.845ZM216.725 100.353L216.724 100.354C214.434 101.242 213.707 102.13 213.707 102.904C213.707 103.707 214.723 103.878 215.361 102.76L216.724 100.354L216.725 100.354V100.353ZM255.649 100.354L255.65 100.353V100.354L255.649 100.354ZM255.649 100.354L254.288 102.76C253.648 103.878 252.632 103.707 252.632 102.904C252.632 102.13 253.358 101.242 255.649 100.354ZM101 88.741H129.922V90.691H101V88.741ZM356.952 88.741H328.03V90.691H356.952V88.741Z" fill="#766458"/>
<path fill-rule="evenodd" clip-rule="evenodd" d="M194.867 37.364V45.1H174.051V0.352997H194.867V8.023H181.667V18.827H192.202V26.497H181.667V37.363L194.867 37.364ZM216.213 45.1V37.364L205.616 37.363V0.352997H198V45.1H216.213ZM322.743 45.1V37.364H309.542V26.497H320.077V18.827H309.542V8.024H322.743V0.352997H301.927V45.1H322.743ZM297.502 0.353997H289.951L283.158 21.959L276.367 0.353997H268.815V45.101H276.432V23.111L279.414 34.489H286.839L289.886 23.111V45.101H297.502V0.353997ZM258.042 8.024H252.519V37.364H258.043L258.042 8.024ZM265.722 5.085C265.722 2.463 263.564 0.353997 261.024 0.353997L249.6 0.354997C247 0.354997 244.904 2.464 244.904 5.085V40.37C244.904 42.927 247 45.1 249.6 45.1H261.024C263.564 45.1 265.722 42.927 265.722 40.37V5.085ZM233.014 28.606L240.692 26.816V40.368C240.692 42.925 238.535 45.098 235.996 45.098H224.571C221.971 45.098 219.876 42.925 219.876 40.368V5.084C219.876 2.462 221.971 0.353997 224.571 0.353997H235.994C238.534 0.353997 240.691 2.462 240.691 5.084V14.161L233.013 15.951V8.023H227.491V37.363H233.013L233.014 28.606ZM170.284 0.353997H162.607L162.037 37.364H161.275L156.387 0.353997H148.835L144.075 37.364H143.251L142.616 0.353997H135L136.142 45.1H150.675L152.642 26.626L154.61 45.1H169.08L170.284 0.353997Z" fill="#81B3D3"/>
<path fill-rule="evenodd" clip-rule="evenodd" d="M9.289 189.909C9.366 189.987 9.405 190.064 9.405 190.142C9.483 190.142 9.56 190.18 9.637 190.258C11.727 192.58 14.089 194.748 16.721 196.761C19.353 198.696 22.373 199.741 25.779 199.896C25.857 199.896 25.934 199.936 26.011 200.013H26.36C26.437 200.013 26.515 200.051 26.592 200.129H27.869C28.257 200.051 28.605 199.974 28.915 199.896C30.156 199.663 31.3395 199.19 32.399 198.503C33.559 197.806 34.45 196.954 35.069 195.948L35.302 195.483L35.534 195.019C35.689 194.477 35.805 193.974 35.883 193.509C35.96 193.045 35.999 192.619 35.999 192.232C35.999 190.142 35.069 188.4 33.212 187.006C31.4805 185.563 29.517 184.425 27.405 183.638C26.6107 183.345 25.7954 183.112 24.966 182.942C24.2379 182.722 23.5021 182.528 22.76 182.361H22.528C22.45 182.284 22.373 182.245 22.296 182.245C18.5304 181.327 14.9274 179.839 11.612 177.832C8.282 175.742 5.999 172.761 4.76 168.89C4.51737 168.08 4.28502 167.267 4.063 166.451C3.90406 165.567 3.78792 164.676 3.715 163.781C3.64366 163.515 3.60471 163.242 3.599 162.967V160.18C3.676 159.561 3.792 158.942 3.947 158.322C4.18741 156.741 4.57612 155.185 5.108 153.677C5.65 152.129 6.347 150.735 7.198 149.497C9.676 145.393 12.85 142.451 16.721 140.671C20.67 138.89 24.773 138 29.031 138C30.038 138 31.044 138.077 32.051 138.232C33.1384 138.31 34.2228 138.426 35.302 138.58C38.126 139.055 40.8904 139.834 43.547 140.903C46.334 141.987 48.889 143.264 51.212 144.735L44.825 159.019C42.7406 157.475 40.5256 156.115 38.205 154.955C35.883 153.793 33.367 153.213 30.657 153.213H29.727C27.947 153.445 26.283 154.258 24.734 155.651C23.186 156.967 22.412 158.4 22.412 159.948V160.645C22.489 160.877 22.605 161.109 22.76 161.342C22.915 161.884 23.186 162.387 23.573 162.852C23.96 163.316 24.386 163.742 24.85 164.129C25.702 164.826 26.94 165.484 28.567 166.103C30.192 166.645 31.896 167.187 33.677 167.729C35.147 168.116 36.579 168.503 37.973 168.89C39.367 169.2 40.528 169.51 41.457 169.82C45.792 171.368 49.044 173.961 51.212 177.6C53.379 181.161 54.502 184.955 54.579 188.98V189.561C54.579 190.026 54.541 190.491 54.463 190.955V192.232C53.999 196.258 52.683 200.09 50.515 203.729C48.425 207.368 45.599 210.155 42.038 212.091C40.7162 212.712 39.3588 213.255 37.973 213.716C36.589 214.101 35.1952 214.45 33.793 214.762C32.643 214.993 31.4792 215.148 30.309 215.226C29.1927 215.378 28.0676 215.455 26.941 215.458H25.663C21.018 215.304 16.451 214.297 11.96 212.438C7.47 210.503 3.483 207.948 0 204.774L9.289 189.909ZM225.183 143.663C218.835 147.147 213.88 152.18 210.319 158.76L210.318 158.759C209.295 160.655 208.44 162.636 207.763 164.681C207.078 166.653 206.535 168.671 206.138 170.72C205.905 171.805 205.75 172.849 205.673 173.855C205.596 174.862 205.557 175.869 205.557 176.875C205.557 183.688 207.415 190.269 211.131 196.617C214.847 202.888 219.957 207.727 226.46 211.133C228.828 212.359 231.319 213.332 233.892 214.036C236.48 214.725 239.122 215.191 241.789 215.43H243.299C243.838 215.507 244.381 215.546 244.925 215.546C252.511 215.546 259.751 213.494 266.641 209.391C273.531 205.211 278.602 199.366 281.853 191.856C282.461 190.344 282.965 188.792 283.363 187.211C283.821 185.617 284.132 183.985 284.292 182.334C284.447 181.559 284.525 180.785 284.525 180.011C284.602 179.159 284.641 178.346 284.641 177.572C284.641 171.148 283.131 164.992 280.112 159.108C277.093 153.147 272.835 148.386 267.338 144.824C264.789 143.201 262.061 141.876 259.209 140.876C256.465 139.88 253.623 139.18 250.731 138.786C249.802 138.708 248.835 138.631 247.828 138.553C246.899 138.476 245.97 138.437 245.041 138.437C238.151 138.437 231.531 140.179 225.183 143.663ZM298.328 213.744V139.77H317.838L345.709 177.744C346.429 178.869 347.088 180.032 347.683 181.228C348.387 182.402 349.045 183.603 349.657 184.828L351.051 187.848C351.515 188.854 351.98 189.821 352.444 190.75C352.371 189.932 352.255 189.118 352.096 188.312C352.019 187.538 351.941 186.725 351.864 185.873C351.706 184.289 351.59 182.702 351.515 181.112C351.435 179.449 351.396 177.783 351.399 176.118V139.77H370.792V213.744H351.399L323.296 175.538C322.522 174.609 321.786 173.525 321.09 172.287C320.386 170.955 319.727 169.599 319.116 168.222C318.666 167.247 318.202 166.279 317.722 165.319C317.363 164.379 316.975 163.449 316.561 162.532C316.948 164.932 317.258 167.371 317.49 169.848C317.722 172.325 317.832 174.803 317.838 177.28V213.744H298.328ZM405.788 139.77L380.356 213.744H400.33L404.162 200.389H432.73L436.446 213.744H456.652L430.988 139.77H405.788ZM408.46 186.105L416.008 161.602C416.315 160.527 416.587 159.443 416.821 158.35C417.137 157.239 417.408 156.116 417.633 154.983C417.71 154.828 417.75 154.712 417.75 154.634C417.75 154.48 417.788 154.325 417.866 154.17C417.943 153.705 418.021 153.279 418.098 152.892C418.253 152.428 418.369 152.002 418.446 151.615C418.524 152.002 418.601 152.428 418.679 152.892C418.756 153.28 418.872 153.705 419.027 154.17C419.269 155.453 419.54 156.731 419.84 158.002C420.216 159.206 420.603 160.406 421.001 161.602L428.55 186.105H408.46ZM263.158 185.353C263.39 184.579 263.584 183.766 263.738 182.914C263.971 182.063 264.126 181.211 264.203 180.359C264.281 179.818 264.319 179.276 264.319 178.734C264.397 178.192 264.435 177.688 264.435 177.224C264.435 176.757 264.396 176.291 264.319 175.83V174.437C263.932 171.107 262.926 167.895 261.299 164.798C259.674 161.701 257.429 159.301 254.564 157.598C253.79 157.211 253.016 156.863 252.242 156.553C251.468 156.243 250.693 155.973 249.919 155.74C249.151 155.586 248.376 155.47 247.597 155.392C246.832 155.238 246.054 155.16 245.274 155.159C241.326 155.159 237.687 156.399 234.358 158.876C231.029 161.353 228.706 164.643 227.39 168.746L227.158 169.211V169.675C226.919 170.398 226.725 171.135 226.578 171.882C226.423 172.579 226.268 173.314 226.113 174.088L225.881 175.714V178.153C225.881 178.385 225.919 178.656 225.997 178.966C226.229 183.069 227.467 186.979 229.713 190.695C232.035 194.333 235.21 196.733 239.235 197.895L240.629 198.359C241.093 198.437 241.597 198.514 242.139 198.591L243.532 198.824H244.926C249.029 198.824 252.706 197.624 255.958 195.224C259.287 192.746 261.687 189.456 263.158 185.353ZM169.157 211.886C173.415 210.956 177.363 209.253 181.002 206.776H181.003C185.493 203.524 188.938 199.344 191.338 194.234C193.738 189.124 195.054 183.821 195.287 178.324V175.421C195.287 174.956 195.248 174.492 195.17 174.028C194.861 168.762 193.506 163.653 191.106 158.698C188.706 153.744 185.338 149.757 181.003 146.738C177.639 144.279 173.805 142.54 169.739 141.628C165.713 140.699 161.609 140.118 157.429 139.886C156.268 139.808 155.068 139.77 153.829 139.77H128.745V213.744H152.551C153.791 213.744 155.03 213.705 156.267 213.628C160.602 213.396 164.899 212.816 169.157 211.886ZM148.602 197.137C148.834 197.137 149.067 197.176 149.299 197.253H150.112C150.422 197.253 150.692 197.293 150.925 197.37H154.06C154.912 197.292 155.725 197.215 156.499 197.137C158.503 196.984 160.486 196.634 162.421 196.092C164.357 195.55 166.099 194.737 167.647 193.653C170.125 191.873 171.944 189.473 173.105 186.453C174.337 183.389 174.968 180.117 174.963 176.815V175.885C174.963 175.576 174.925 175.266 174.847 174.957C174.695 172.024 173.985 169.147 172.757 166.479C171.518 163.692 169.815 161.486 167.647 159.859C166.057 158.561 164.189 157.647 162.189 157.189C160.208 156.718 158.185 156.446 156.15 156.376H148.602V197.137ZM68.692 139.769V213.743H114.098V197.137H88.55V184.595H112.589V168.801H88.55V155.911H114.098V139.769H68.692ZM351.039 336.152C350.926 336.443 350.869 336.735 350.869 337.029C350.869 337.747 351.116 338.298 351.609 338.678C352.104 339.062 352.679 339.252 353.329 339.252C353.305 339.633 353.205 339.97 353.025 340.262C352.846 340.553 352.617 340.81 352.349 341.022C352.082 341.235 351.795 341.415 351.492 341.561C351.188 341.706 350.914 341.823 350.664 341.913L352.014 343.903C352.047 343.887 352.079 343.871 352.112 343.856L352.141 343.842L352.198 343.816C352.26 343.787 352.322 343.76 352.384 343.733C352.59 343.645 352.83 343.525 353.11 343.381C353.418 343.218 353.716 343.038 354.003 342.841C354.305 342.638 354.588 342.407 354.846 342.15C355.399 341.601 355.839 340.948 356.142 340.23C356.446 339.511 356.597 338.722 356.597 337.872C356.597 337.421 356.531 336.995 356.395 336.591C356.26 336.187 356.07 335.839 355.823 335.547C355.532 335.23 355.176 334.99 354.762 334.82C354.346 334.652 353.914 334.568 353.464 334.568C353.059 334.568 352.694 334.642 352.369 334.788C352.059 334.923 351.778 335.117 351.542 335.36C351.319 335.596 351.151 335.859 351.039 336.152ZM358.706 337.029C358.706 336.736 358.763 336.443 358.873 336.152C358.986 335.859 359.155 335.596 359.379 335.36C359.606 335.125 359.879 334.932 360.204 334.788C360.531 334.643 360.894 334.568 361.3 334.568C361.75 334.568 362.183 334.652 362.597 334.82C363.014 334.99 363.367 335.23 363.658 335.547C363.908 335.839 364.098 336.187 364.232 336.591C364.366 336.996 364.434 337.422 364.434 337.872C364.443 338.681 364.288 339.483 363.979 340.23C363.675 340.948 363.234 341.6 362.681 342.15C362.422 342.407 362.139 342.638 361.836 342.841C361.55 343.04 361.252 343.22 360.943 343.381C360.663 343.526 360.423 343.645 360.218 343.733C360.094 343.787 359.97 343.844 359.848 343.903L358.5 341.913C358.747 341.824 359.02 341.706 359.325 341.561C359.629 341.415 359.915 341.235 360.185 341.022C360.453 340.808 360.679 340.555 360.858 340.262C361.039 339.97 361.14 339.634 361.162 339.252C360.54 339.263 359.934 339.06 359.443 338.678C358.953 338.298 358.706 337.747 358.706 337.03V337.029ZM93.976 279.188C94.089 278.897 94.146 278.604 94.146 278.313H94.147C94.147 277.594 93.899 277.045 93.407 276.664C92.913 276.282 92.339 276.092 91.689 276.092C91.712 275.709 91.812 275.371 91.992 275.079C92.172 274.787 92.395 274.534 92.665 274.321C92.935 274.107 93.222 273.928 93.525 273.782C93.7943 273.652 94.0696 273.534 94.35 273.43L93.002 271.442C92.958 271.464 92.835 271.522 92.632 271.609C92.429 271.698 92.187 271.817 91.907 271.961C91.5989 272.123 91.3007 272.303 91.014 272.501C90.7106 272.703 90.4278 272.934 90.17 273.191C89.617 273.741 89.1764 274.393 88.873 275.111C88.57 275.831 88.418 276.619 88.418 277.471C88.4158 277.906 88.4841 278.338 88.62 278.751C88.7421 279.133 88.9367 279.488 89.193 279.796C89.4882 280.113 89.8503 280.361 90.253 280.521C90.6648 280.689 91.1054 280.774 91.55 280.773C92.2723 280.783 92.9672 280.497 93.473 279.981C93.6917 279.753 93.8627 279.483 93.976 279.188ZM86.31 278.313C86.3052 278.935 86.0647 279.532 85.637 279.983C85.4014 280.225 85.1208 280.419 84.811 280.554C84.485 280.7 84.119 280.774 83.715 280.774C83.27 280.775 82.8291 280.69 82.417 280.522C82.0144 280.361 81.6524 280.113 81.357 279.796C81.1 279.488 80.9054 279.133 80.784 278.751C80.6476 278.338 80.5793 277.906 80.582 277.471C80.582 276.619 80.732 275.831 81.037 275.111C81.34 274.393 81.7806 273.74 82.334 273.191C82.581 272.943 82.861 272.714 83.177 272.5C83.491 272.288 83.789 272.107 84.07 271.96C84.35 271.816 84.59 271.698 84.794 271.61L84.8507 271.584C85.0195 271.508 85.1254 271.461 85.166 271.44L86.513 273.428C86.265 273.518 85.991 273.636 85.687 273.781C85.384 273.928 85.097 274.107 84.83 274.319C84.5625 274.531 84.3337 274.788 84.154 275.078C83.975 275.37 83.874 275.708 83.852 276.09C84.502 276.09 85.076 276.28 85.57 276.663C86.063 277.045 86.31 277.593 86.31 278.313ZM335.475 335.187H331.66L343.541 314.551H347.317L335.475 335.187ZM331.479 336.675C330.243 336.675 329.298 337.655 329.298 338.893C329.298 340.131 330.244 341.073 331.479 341.073C332.711 341.073 333.696 340.129 333.696 338.893C333.696 337.657 332.711 336.675 331.479 336.675ZM306.217 329.26L305.127 331.148C305.962 333.619 309.266 332.239 310.396 330.277L312.211 327.153C313.556 324.863 310.577 323.192 306.217 329.26ZM330.219 334.128C330.001 333.548 329.347 332.965 328.802 332.821L328.547 333.113C327.218 334.673 325.691 336.052 324.005 337.217C324.475 335.806 324.722 334.098 324.988 332.252C325.4 329.393 325.86 326.203 327.273 323.267L324.438 321.74C324.16 322.122 323.822 322.593 323.437 323.132L323.436 323.133L323.436 323.133C321.659 325.616 318.852 329.537 316.046 332.821C316.052 332.831 316.062 332.839 316.067 332.846C316.061 332.843 316.054 332.839 316.047 332.835C316.039 332.829 316.03 332.824 316.022 332.821L315.769 333.113C313.042 336.273 310.392 338.779 308.719 338.779C307.885 338.779 307.085 337.943 307.085 336.236V334.674C309.737 335.001 312.535 333.256 314.315 330.17L315.331 328.427C318.853 322.397 313.114 320.397 309.263 323.923L314.638 314.586H310.859L300.084 333.281C299.877 333.098 299.645 332.944 299.395 332.824L299.139 333.116C296.416 336.276 292.928 338.782 290.276 338.782C287.951 338.782 286.571 337.329 288.315 334.278L292.199 327.521C294.379 323.779 298.231 324.397 295.977 328.321L295.433 329.265H298.523L299.068 328.321C301.102 324.833 299.139 322.217 296.053 322.217C293.002 322.217 290.566 323.817 288.968 326.577L285.25 332.957C285.23 332.945 285.21 332.933 285.19 332.921C285.131 332.885 285.072 332.849 285.017 332.825L284.762 333.117C282.038 336.277 279.387 338.783 277.715 338.783C276.879 338.783 276.409 338.203 277.279 336.713L285.345 322.58H281.565L274.846 334.314C271.973 336.929 269.761 338.382 269.032 338.056C268.156 337.686 268.905 336.44 269.396 335.624C269.434 335.56 269.471 335.499 269.505 335.441L276.879 322.58H273.101L265.763 335.275C265.257 335.736 264.454 336.166 263.73 336.555C263.286 336.793 262.872 337.015 262.573 337.219C263.044 335.807 263.29 334.099 263.557 332.252V332.252L263.557 332.251C263.969 329.393 264.43 326.204 265.842 323.269L263.01 321.742C261.447 323.885 252.727 335.44 249.312 339.435C249.637 339.907 250.184 340.38 250.728 340.743C252.871 338.273 260.066 329.009 261.41 327.229C260.909 328.547 260.667 330.219 260.43 331.857C259.961 335.094 259.511 338.201 257.122 338.201C255.852 338.201 255.342 336.819 255.342 336.819L252.981 338.055C252.981 338.055 253.671 341.105 257.121 341.105C257.455 341.105 257.757 341.075 258.085 341.042L258.085 341.042L258.177 341.033C258.184 341.033 258.19 341.032 258.197 341.03C258.203 341.028 258.209 341.025 258.215 341.022C258.22 341.02 258.225 341.018 258.23 341.015L258.23 341.015C258.241 341.01 258.251 341.004 258.262 341.001L258.267 340.999L258.27 340.998C258.275 340.998 258.279 340.997 258.283 340.997C260.203 340.743 262.861 339.859 264.643 338.627C264.631 340.164 265.559 341.105 267.143 341.105C269.211 341.105 271.538 339.216 273.353 337.473C272.992 339.508 274.188 341.105 276.588 341.105C278.934 341.105 281.547 339.219 284.025 336.742C284.059 339.252 285.993 341.105 289.151 341.105C292.217 341.105 295.265 339.392 297.892 337.089L295.787 340.743H299.603L303.926 333.223V336.237C303.926 339.469 304.543 341.105 307.596 341.105C310.719 341.105 314.317 337.764 317.441 334.13C317.439 334.127 317.437 334.124 317.434 334.12C317.428 334.113 317.422 334.105 317.421 334.096C317.435 334.108 317.452 334.119 317.468 334.13C319.181 332.156 320.733 330.065 321.971 328.396C322.282 327.977 322.574 327.584 322.843 327.226C322.343 328.544 322.102 330.214 321.865 331.852C321.396 335.09 320.946 338.199 318.556 338.199C317.286 338.199 316.776 336.817 316.776 336.817L314.414 338.053C314.414 338.053 315.105 341.103 318.556 341.103C318.884 341.103 319.182 341.074 319.508 341.041L319.612 341.031C319.628 341.031 319.643 341.024 319.659 341.016C319.678 341.006 319.697 340.996 319.717 340.996C323.57 340.484 327.385 337.434 330.218 334.126L330.219 334.128ZM215.445 333.042H215.628L218.388 328.32C220.676 324.395 217.044 322.615 214.391 327.12L212.575 330.208L209.705 335.185C207.452 339.109 211.776 339.689 213.555 336.639L213.592 336.566C213.374 336.204 213.229 335.769 213.229 335.297C213.229 334.059 214.21 333.042 215.445 333.042ZM190.198 347.173C189.398 348.59 188.126 348.373 188.126 347.357C188.126 346.377 189.035 345.251 191.941 344.123L190.198 347.173ZM155.353 338.746C156.915 338.746 159.168 337.038 161.456 333.443L164.397 328.283C166.251 324.867 162.219 323.96 160.184 327.482L154.917 336.675C154.046 338.166 154.518 338.746 155.353 338.746ZM149.402 318.693C150.528 316.766 151.764 315.931 152.817 315.931C154.235 315.931 154.888 316.875 154.888 318.256C154.888 321.78 150.524 329.089 144.716 328.137H143.953L149.402 318.693ZM241.925 333.079L242.179 332.787L242.18 332.788C242.69 333.006 243.343 333.588 243.598 334.099C240.472 337.732 236.878 341.074 233.752 341.074C230.699 341.074 229.574 338.497 231.172 335.698L236.076 327.16C237.712 324.362 235.132 323.419 229.355 330.649L223.579 340.712H219.764L222.304 336.318C220.618 337.248 218.75 337.768 217.37 337.768H216.535C212.297 343.126 205.269 341.923 205.789 336.646C202.537 339.865 199.423 341.824 196.264 342.818L193.358 347.796C190.636 352.446 185.076 351.682 185.076 348.049C185.076 345.217 188.273 343.108 193.396 341.584L195.467 338.024C193.758 339.548 191.689 341.074 189.872 341.074C187.99 341.074 187.031 339.742 187.484 337.664C185.31 339.654 183.077 341.074 181.044 341.074C177.993 341.074 176.867 338.498 178.465 335.698L183.369 327.164C185.004 324.365 182.424 323.422 176.647 330.652L170.871 340.715H167.057L168.449 338.304C166.507 339.953 164.539 341.077 162.729 341.077C160.805 341.077 159.641 340.062 159.461 338.608C157.644 340.097 155.755 341.077 154.229 341.077C151.554 341.077 150.358 339.096 151.181 336.722L150.957 336.935L150.957 336.935C148.467 339.304 146.604 341.077 142.5 341.077C137.16 341.077 135.599 335.993 138.25 331.415L139.375 329.451C136.325 327.853 134.617 324.946 134.617 321.933C134.617 319.387 135.814 316.811 138.504 314.883L139.739 317.101C138.105 318.371 137.305 320.115 137.305 321.858C137.305 323.966 138.469 326.073 140.685 327.236L146.571 317.099C148.277 314.121 150.748 312.667 152.819 312.667C155.615 312.667 157.832 314.882 157.832 318.297C157.832 319.787 157.359 321.53 156.306 323.383C153.327 328.578 148.749 330.65 144.716 330.65C143.955 330.65 143.264 330.573 142.574 330.466L141.519 332.318C139.269 336.17 140.83 338.749 143.409 338.749C147.084 338.749 149.168 336.332 151.822 333.253L151.969 333.082L152.223 332.79C152.494 332.863 152.791 333.045 153.051 333.278L156.954 326.542C158.55 323.779 161.386 322.182 163.419 322.182C165.89 322.182 167.525 324.398 167.38 325.996H169.523L163.419 336.676C162.548 338.168 163.02 338.748 163.855 338.748C165.528 338.748 168.18 336.241 170.903 333.081L171.157 332.789C171.282 332.847 171.402 332.914 171.516 332.991L177.554 322.546H181.334L179.917 325.015C181.805 323.053 183.513 322.181 185.148 322.181C187.255 322.181 188.817 324.253 187.182 327.123L181.733 336.676C180.862 338.168 181.334 338.748 182.169 338.748C183.841 338.748 186.492 336.241 189.217 333.081L189.471 332.789C189.586 332.843 189.697 332.905 189.802 332.976L195.83 322.546H199.608L192.233 335.406L192.186 335.486L192.122 335.592C191.632 336.41 190.887 337.653 191.761 338.022C192.487 338.348 194.74 336.859 197.647 334.172L204.33 322.546H208.109L197.754 340.276C200.732 339.001 203.384 336.676 206.509 333.081L206.763 332.79C206.882 332.844 206.996 332.908 207.105 332.98L208.725 330.21L210.577 326.977C212.758 323.199 215.009 322.037 217.916 322.037C221.478 322.037 223.584 325.776 221.296 329.738L217.736 335.878C219.625 335.841 221.733 334.931 223.439 333.079L223.694 332.787C223.864 332.867 224.026 332.964 224.176 333.077L230.264 322.544H234.043L232.626 325.013C234.516 323.051 236.221 322.18 237.857 322.18C239.962 322.18 241.528 324.251 239.892 327.121L234.442 336.674C233.571 338.166 234.042 338.746 234.878 338.746C236.55 338.746 239.203 336.239 241.925 333.079ZM360.81 297.215C358.52 300.956 356.195 302.736 354.598 302.736C353.763 302.736 353.291 302.156 354.161 300.666L359.428 291.473C361.463 287.949 365.495 288.858 363.642 292.273H363.677L360.81 297.215ZM318.519 302.736C320.08 302.736 322.333 301.028 324.623 297.434L327.564 292.273C329.416 288.858 325.384 287.949 323.35 291.473L318.082 300.666C317.212 302.156 317.683 302.736 318.519 302.736ZM284.706 311.164C283.909 312.581 282.636 312.364 282.636 311.348C282.636 310.367 283.508 309.241 286.415 308.114L284.706 311.164ZM296.151 279.923C295.096 279.923 293.861 280.757 292.734 282.683L287.286 292.128H288.049C297.676 294.358 302.145 279.923 296.151 279.923ZM370.398 296.78L370.143 297.07C367.423 300.23 364.769 302.737 363.096 302.737C362.261 302.737 361.789 302.157 362.659 300.666L375.448 278.542H371.669L366.112 288.133C365.458 287.079 364.222 286.171 362.659 286.171C360.624 286.171 357.792 287.77 356.193 290.53L352.495 296.91C352.482 296.903 352.469 296.895 352.456 296.887L352.431 296.872C352.373 296.837 352.315 296.802 352.261 296.778L352.006 297.07C349.283 300.23 347.006 302.736 345.334 302.736C344.497 302.736 344.027 302.156 344.896 300.666L350.346 291.111C351.983 288.241 350.418 286.169 348.312 286.169C346.676 286.169 344.972 287.04 343.08 289.004L344.497 286.534H340.718L334.681 296.981C334.566 296.904 334.446 296.836 334.321 296.778L334.065 297.07C331.342 300.23 328.691 302.736 327.019 302.736C326.184 302.736 325.713 302.156 326.583 300.666L332.686 289.984H330.542C330.688 288.386 329.054 286.169 326.582 286.169C324.547 286.169 321.712 287.768 320.114 290.527L316.462 296.833L316.256 297.067C313.534 300.226 310.506 302.732 308.836 302.732C307.999 302.732 307.529 302.152 308.399 300.662L312.177 294.051C313.484 291.761 312.866 290.418 311.632 288.928L309.526 286.384C308.981 285.694 308.981 284.931 309.744 284.204L307.782 282.061C305.638 283.988 305.457 286.13 306.8 287.874L307.129 288.31L306.995 288.499L306.995 288.5C305.337 290.842 303.139 293.947 300.732 296.775C300.773 296.834 300.818 296.892 300.866 296.95C300.906 296.998 300.947 297.047 300.99 297.095C297.877 300.675 295.231 302.99 292.26 304.257L297.055 296.047H293.277L292.878 296.702C290.88 300.226 288.59 302.733 285.648 302.733C283.068 302.733 282.598 300.154 284.848 296.303L285.903 294.451C286.611 294.568 287.327 294.628 288.045 294.632C301.488 294.632 307.991 276.65 296.149 276.65C294.077 276.65 291.605 278.104 289.899 281.082L284.014 291.217C281.798 290.056 280.636 287.949 280.636 285.842C280.636 284.099 281.436 282.354 283.068 281.084L281.835 278.867C279.145 280.793 277.947 283.371 277.947 285.914C277.947 288.93 279.656 291.836 282.707 293.434L281.58 295.397C278.928 299.975 279.4 305.06 284.742 305.06C286.34 305.06 287.683 304.588 288.847 303.86L287.864 305.57C282.744 307.13 279.582 309.201 279.582 312.035C279.582 315.667 285.142 316.431 287.864 311.781L290.771 306.804C294.696 305.569 298.547 302.881 302.689 298.085C302.622 297.959 302.543 297.84 302.453 297.73C304.131 295.759 305.555 293.856 308.403 289.984L308.91 290.603C309.383 291.219 309.564 291.983 309.128 292.747L305.131 299.684C303.532 302.479 304.659 305.058 307.711 305.058C309.61 305.058 312.059 303.819 314.096 302.034C314.052 303.772 315.24 305.058 317.395 305.058C318.92 305.058 320.81 304.078 322.625 302.588C322.808 304.042 323.972 305.058 325.895 305.058C327.705 305.058 329.672 303.933 331.615 302.284L330.223 304.696H334.036L339.813 294.631C345.59 287.402 348.17 288.347 346.533 291.144L341.63 299.682C340.033 302.48 341.157 305.058 344.208 305.058C346.218 305.058 348.044 303.674 350.19 301.725C349.99 303.618 351.194 305.058 353.472 305.058C354.997 305.058 356.886 304.078 358.704 302.588C358.886 304.043 360.049 305.058 361.973 305.058C365.098 305.058 368.693 301.717 371.818 298.082C371.562 297.578 370.909 296.997 370.398 296.78ZM261.897 292.274C264.151 288.35 260.298 287.733 258.118 291.475L255.684 295.725C257.1 296.233 259.535 296.307 261.352 293.218L261.897 292.274ZM255.067 305.062C259.354 305.062 263.607 301.721 266.729 298.087C266.476 297.577 265.821 296.997 265.312 296.779L265.059 297.071C262.333 300.231 258.846 302.737 256.192 302.737C253.867 302.737 252.487 301.284 254.23 298.232L254.593 297.579C257.028 298.595 261.605 298.124 264.439 293.219L264.984 292.275C267.019 288.786 265.057 286.171 261.968 286.171C258.918 286.171 256.484 287.769 254.885 290.53L251.206 296.843C251.168 296.823 251.13 296.795 251.094 296.779L250.839 297.071C248.115 300.231 245.464 302.737 243.792 302.737C242.956 302.737 242.486 302.157 243.355 300.666L248.805 291.111C250.44 288.241 248.877 286.169 246.769 286.169C245.134 286.169 243.39 287.078 241.503 289.04L247.533 278.54H243.755L233.099 297.03C232.964 296.932 232.819 296.847 232.667 296.778L232.412 297.069C229.687 300.23 227.036 302.736 225.364 302.736C224.529 302.736 224.057 302.156 224.927 300.666L233.029 286.532H236.119L237.209 284.715H234.084L237.644 278.54H233.866L230.306 284.715H226.891L225.801 286.532H229.251L221.658 299.685C220.06 302.484 221.186 305.062 224.237 305.062C226.115 305.062 228.163 303.849 230.177 302.098L228.678 304.698H232.493L238.233 294.706C244.046 287.404 246.626 288.349 244.991 291.146L240.086 299.684C238.488 302.482 239.614 305.06 242.666 305.06C244.962 305.06 247.512 303.255 249.942 300.855C250.052 303.286 251.975 305.062 255.067 305.062ZM131.372 292.273C133.626 288.349 129.776 287.732 127.596 291.474L125.161 295.723C126.577 296.232 129.013 296.305 130.828 293.217L131.372 292.273ZM150.715 300.665L155.983 291.474C158.017 287.948 162.05 288.857 160.196 292.273L157.254 297.432C154.966 301.027 152.711 302.736 151.15 302.736C150.316 302.736 149.843 302.155 150.715 300.666V300.665ZM208.475 292.273C210.729 288.349 206.879 287.732 204.699 291.474L202.264 295.723C203.68 296.231 206.115 296.305 207.93 293.217L208.475 292.273ZM146.891 301C146.264 303.24 147.461 305.06 150.025 305.06C151.55 305.06 153.44 304.08 155.255 302.591C155.438 304.044 156.601 305.061 158.525 305.061C160.538 305.061 162.743 303.671 164.894 301.715C164.476 303.757 165.433 305.061 167.294 305.061C169.367 305.061 171.692 303.171 173.507 301.427C173.143 303.463 174.344 305.061 176.741 305.061C179.866 305.061 183.461 301.719 186.586 298.085C186.571 298.056 186.551 298.026 186.53 297.997C186.515 297.976 186.499 297.955 186.486 297.934C188.126 296.026 189.614 294.027 190.816 292.412L190.816 292.412L190.816 292.411L190.817 292.411L190.817 292.41C191.145 291.969 191.452 291.558 191.734 291.184C191.233 292.502 190.991 294.173 190.754 295.812V295.812C190.285 299.048 189.835 302.156 187.446 302.156C186.176 302.156 185.666 300.774 185.666 300.774L183.303 302.009C183.303 302.009 183.993 305.061 187.445 305.061C187.769 305.061 188.063 305.032 188.382 305L188.499 304.988C188.518 304.988 188.536 304.979 188.554 304.97C188.572 304.962 188.589 304.953 188.607 304.953C191.383 304.586 194.136 302.897 196.52 300.744C196.578 303.23 198.506 305.061 201.645 305.061C205.932 305.061 210.183 301.72 213.307 298.085C213.053 297.575 212.399 296.995 211.891 296.777L211.637 297.069C208.912 300.229 205.424 302.736 202.774 302.736C200.448 302.736 199.067 301.282 200.811 298.231L201.175 297.577C203.607 298.593 208.185 298.122 211.02 293.217L211.565 292.274C213.599 288.785 211.637 286.17 208.55 286.17C205.5 286.17 203.063 287.768 201.467 290.528L197.797 296.822C197.781 296.817 197.765 296.808 197.749 296.8C197.73 296.791 197.712 296.781 197.693 296.776L197.439 297.067C196.11 298.627 194.583 300.007 192.897 301.173C193.368 299.761 193.614 298.053 193.881 296.206V296.206L193.881 296.206C194.294 293.348 194.755 290.158 196.167 287.222L193.334 285.696C193.05 286.086 192.705 286.568 192.309 287.12L192.309 287.12C190.53 289.605 187.736 293.507 184.941 296.776C184.952 296.791 184.964 296.806 184.976 296.822C184.984 296.831 184.992 296.841 185 296.85L185.002 296.853L185.003 296.854C185.019 296.874 185.036 296.894 185.051 296.914L184.916 297.067C182.192 300.227 179.54 302.734 177.868 302.734C177.033 302.734 176.561 302.154 177.432 300.664L185.497 286.529H181.718L174.998 298.263C172.128 300.879 169.913 302.332 169.184 302.005C168.308 301.635 169.059 300.387 169.55 299.57L169.551 299.568L169.56 299.553C169.581 299.52 169.6 299.487 169.619 299.455C169.632 299.433 169.645 299.411 169.658 299.39L177.031 286.53H173.253L167.24 296.935L167.206 296.914C167.12 296.861 167.034 296.808 166.953 296.774L166.699 297.064C163.974 300.224 161.323 302.731 159.651 302.731C158.816 302.731 158.344 302.151 159.215 300.661L165.318 289.979H163.174C163.32 288.381 161.686 286.163 159.214 286.163C157.18 286.163 154.346 287.763 152.748 290.523L148.918 297.135C148.741 296.991 148.548 296.869 148.342 296.772L148.088 297.062C145.364 300.222 142.23 302.729 139.578 302.729C137.254 302.729 135.872 301.276 137.615 298.225L141.502 291.469C143.682 287.727 147.533 288.344 145.279 292.267L144.734 293.212H147.824L148.368 292.267C150.402 288.78 148.441 286.163 145.354 286.163C142.302 286.163 140.22 287.763 138.624 290.523L134.868 296.966C134.758 296.892 134.642 296.827 134.521 296.772L134.267 297.062C131.543 300.222 128.32 302.729 125.669 302.729C123.343 302.729 121.962 301.276 123.706 298.225L124.069 297.571C126.503 298.589 131.081 298.116 133.915 293.213L134.46 292.267C136.494 288.781 134.532 286.164 131.444 286.164C128.394 286.164 125.958 287.762 124.361 290.524L120.401 297.316C118.038 301.349 120.074 305.054 124.541 305.054C127.87 305.054 130.554 303.039 133.329 300.437C133.231 303.074 135.187 305.054 138.45 305.054C141.538 305.06 144.25 303.326 146.891 301ZM113.07 281.809L110.019 287.04V287.041C113.87 286.968 116.015 286.132 117.465 283.408C119.355 279.847 115.83 277.052 113.07 281.809ZM105.951 304.26C103.698 304.26 101.918 303.752 100.501 302.954C101.155 302.19 101.808 301.245 102.391 300.265L108.747 289.257L109.764 289.365C118.63 291.22 115.105 304.26 105.951 304.26ZM115.288 288.785C122.916 286.204 123.497 276.65 115.977 276.65C113.906 276.65 111.436 278.103 109.729 281.082L99.556 298.666C99.1362 299.421 98.6503 300.138 98.104 300.807C95.488 297.212 96.251 291.836 99.92 289.473L98.393 287.547C90.473 292.597 92.799 307.164 106.023 307.164C117.322 307.166 122.553 293.618 115.288 288.785Z" fill="white"/>
</svg>
